<svg width="182" height="74" viewBox="0 0 182 74" fill="none" xmlns="http://www.w3.org/2000/svg">
<path d="M10.764 2.792C13.428 2.792 15.528 3.344 17.064 4.448C18.624 5.528 19.404 7.172 19.404 9.38C19.404 10.748 19.104 11.936 18.504 12.944C17.904 13.952 17.076 14.744 16.02 15.32C17.436 15.92 18.564 16.748 19.404 17.804C20.268 18.836 20.7 20.06 20.7 21.476C20.7 23.3 20.268 24.764 19.404 25.868C18.564 26.948 17.46 27.74 16.092 28.244C14.748 28.748 13.308 29 11.772 29H3.6V2.792H10.764ZM11.448 13.952C12.696 13.952 13.608 13.592 14.184 12.872C14.784 12.128 15.084 11.264 15.084 10.28C15.084 9.08 14.712 8.204 13.968 7.652C13.224 7.1 12.216 6.824 10.944 6.824H7.812V13.952H11.448ZM11.592 25.112C12.912 25.112 14.04 24.824 14.976 24.248C15.912 23.648 16.38 22.736 16.38 21.512C16.38 20.6 16.128 19.892 15.624 19.388C15.12 18.884 14.472 18.524 13.68 18.308C12.912 18.092 12.12 17.984 11.304 17.984H7.812V25.112H11.592ZM30.4158 29.396C28.9758 29.396 27.6798 29.096 26.5278 28.496C25.3758 27.896 24.4518 27.008 23.7558 25.832C23.0838 24.656 22.7478 23.18 22.7478 21.404C22.7478 19.676 23.0958 18.2 23.7918 16.976C24.5118 15.728 25.4478 14.768 26.5998 14.096C27.7758 13.424 29.0478 13.088 30.4158 13.088C31.8318 13.088 32.9718 13.364 33.8358 13.916C34.7238 14.444 35.4318 15.08 35.9598 15.824L36.2478 13.772H39.9558V29H35.9238V26.768C35.6598 27.08 35.2758 27.44 34.7718 27.848C34.2678 28.256 33.6438 28.616 32.8998 28.928C32.1798 29.24 31.3518 29.396 30.4158 29.396ZM31.5318 26.084C32.6118 26.084 33.5358 25.796 34.3038 25.22C35.0718 24.644 35.6118 23.852 35.9238 22.844V19.532C35.6358 18.596 35.0838 17.84 34.2678 17.264C33.4518 16.688 32.4918 16.4 31.3878 16.4C30.5478 16.4 29.7798 16.604 29.0838 17.012C28.4118 17.396 27.8598 17.96 27.4278 18.704C27.0198 19.424 26.8158 20.252 26.8158 21.188C26.8158 22.1 27.0318 22.928 27.4638 23.672C27.8958 24.416 28.4598 25.004 29.1558 25.436C29.8758 25.868 30.6678 26.084 31.5318 26.084ZM48.9794 29.648C47.5874 29.648 46.4354 29.228 45.5234 28.388C44.6114 27.524 44.1314 26.42 44.0834 25.076V13.772H48.1154V23.636C48.1634 24.404 48.3794 25.028 48.7634 25.508C49.1474 25.964 49.7594 26.192 50.5994 26.192C51.7994 26.192 52.7834 25.652 53.5514 24.572C54.3194 23.492 54.7034 22.136 54.7034 20.504V13.772H58.7354V29H55.0994L54.8114 26.3C54.3314 27.284 53.5754 28.088 52.5434 28.712C51.5114 29.336 50.3234 29.648 48.9794 29.648ZM66.4943 13.772L66.7823 16.472C67.3583 15.416 68.1383 14.588 69.1223 13.988C70.1063 13.388 71.2463 13.088 72.5423 13.088C73.7903 13.088 74.8343 13.364 75.6743 13.916C76.5143 14.468 77.0303 15.236 77.2223 16.22C77.8703 15.26 78.6623 14.504 79.5983 13.952C80.5583 13.376 81.5663 13.088 82.6223 13.088C84.1343 13.088 85.3223 13.52 86.1863 14.384C87.0743 15.224 87.5303 16.316 87.5543 17.66V29H83.5583V19.208C83.5103 18.488 83.3423 17.888 83.0543 17.408C82.7663 16.904 82.2383 16.628 81.4703 16.58C80.6063 16.58 79.8623 16.856 79.2383 17.408C78.6143 17.936 78.1223 18.632 77.7623 19.496C77.4263 20.336 77.2583 21.224 77.2583 22.16V29H73.1903V19.208C73.1663 18.488 72.9983 17.888 72.6863 17.408C72.3743 16.904 71.8223 16.628 71.0303 16.58C70.1903 16.58 69.4583 16.856 68.8343 17.408C68.2103 17.936 67.7303 18.632 67.3943 19.496C67.0583 20.336 66.8903 21.224 66.8903 22.16V29H62.8583V13.772H66.4943ZM97.8806 29.396C96.4406 29.396 95.1566 29.06 94.0286 28.388C92.9006 27.716 92.0126 26.768 91.3646 25.544C90.7166 24.296 90.3926 22.832 90.3926 21.152C90.3926 19.448 90.7406 17.996 91.4366 16.796C92.1326 15.596 93.0806 14.684 94.2806 14.06C95.4806 13.412 96.8486 13.088 98.3846 13.088C99.4886 13.088 100.533 13.304 101.517 13.736C102.525 14.144 103.317 14.708 103.893 15.428V0.919999H107.889V29H103.857V26.948C103.113 27.668 102.237 28.256 101.229 28.712C100.245 29.168 99.1286 29.396 97.8806 29.396ZM99.1766 25.976C100.353 25.976 101.337 25.688 102.129 25.112C102.945 24.536 103.521 23.732 103.857 22.7V19.46C103.569 18.524 102.993 17.756 102.129 17.156C101.289 16.556 100.305 16.256 99.1766 16.256C98.3126 16.256 97.5206 16.472 96.8006 16.904C96.1046 17.312 95.5406 17.876 95.1086 18.596C94.6766 19.316 94.4606 20.144 94.4606 21.08C94.4606 21.992 94.6766 22.82 95.1086 23.564C95.5406 24.308 96.1046 24.896 96.8006 25.328C97.5206 25.76 98.3126 25.976 99.1766 25.976ZM112.01 13.772H116.042V29H112.01V13.772ZM111.83 8.336C111.83 7.712 112.07 7.196 112.55 6.788C113.054 6.38 113.594 6.176 114.17 6.176C114.722 6.176 115.238 6.38 115.718 6.788C116.198 7.196 116.438 7.712 116.438 8.336C116.438 8.96 116.198 9.476 115.718 9.884C115.238 10.268 114.722 10.46 114.17 10.46C113.594 10.46 113.054 10.268 112.55 9.884C112.07 9.476 111.83 8.96 111.83 8.336ZM127.404 29.396C125.604 29.396 124.068 29.048 122.796 28.352C121.524 27.656 120.552 26.696 119.88 25.472C119.208 24.224 118.872 22.82 118.872 21.26C118.872 19.748 119.256 18.38 120.024 17.156C120.792 15.908 121.824 14.924 123.12 14.204C124.416 13.46 125.868 13.088 127.476 13.088C129.564 13.088 131.28 13.7 132.624 14.924C133.992 16.124 134.904 17.828 135.36 20.036L123.66 23.996C124.524 25.292 125.796 25.94 127.476 25.94C128.1 25.94 128.688 25.832 129.24 25.616C129.816 25.4 130.368 25.112 130.896 24.752L132.732 27.74C131.916 28.244 131.04 28.652 130.104 28.964C129.168 29.252 128.268 29.396 127.404 29.396ZM122.832 21.044C122.832 21.236 122.844 21.44 122.868 21.656L130.86 18.812C130.572 18.14 130.14 17.552 129.564 17.048C128.988 16.52 128.184 16.256 127.152 16.256C125.88 16.256 124.836 16.7 124.02 17.588C123.228 18.476 122.832 19.628 122.832 21.044ZM141.523 13.772L141.811 16.508C142.339 15.476 143.119 14.66 144.151 14.06C145.183 13.436 146.407 13.124 147.823 13.124C149.239 13.124 150.415 13.556 151.351 14.42C152.311 15.26 152.803 16.352 152.827 17.696V29H148.795V19.136C148.747 18.368 148.519 17.756 148.111 17.3C147.727 16.82 147.091 16.568 146.203 16.544C144.955 16.544 143.923 17.084 143.107 18.164C142.315 19.22 141.919 20.576 141.919 22.232V29H137.887V13.772H141.523ZM161.515 29.324C160.363 29.324 159.259 29.12 158.203 28.712C157.171 28.304 156.295 27.704 155.575 26.912L157.303 24.644C157.975 25.292 158.635 25.772 159.283 26.084C159.955 26.372 160.591 26.516 161.191 26.516C161.863 26.516 162.439 26.396 162.919 26.156C163.423 25.892 163.675 25.46 163.675 24.86C163.675 24.38 163.507 24.008 163.171 23.744C162.835 23.456 162.403 23.228 161.875 23.06C161.347 22.868 160.795 22.688 160.219 22.52C158.899 22.112 157.915 21.512 157.267 20.72C156.619 19.928 156.295 19.016 156.295 17.984C156.295 17.192 156.499 16.436 156.907 15.716C157.315 14.972 157.927 14.36 158.743 13.88C159.583 13.4 160.651 13.16 161.947 13.16C163.075 13.16 164.071 13.292 164.935 13.556C165.799 13.82 166.603 14.24 167.347 14.816L165.799 17.228C165.367 16.82 164.851 16.508 164.251 16.292C163.675 16.052 163.147 15.92 162.667 15.896C162.019 15.872 161.479 16.004 161.047 16.292C160.615 16.58 160.399 16.964 160.399 17.444C160.375 17.924 160.531 18.308 160.867 18.596C161.227 18.884 161.683 19.112 162.235 19.28C162.787 19.448 163.339 19.628 163.891 19.82C164.995 20.18 165.907 20.696 166.627 21.368C167.347 22.016 167.707 22.928 167.707 24.104C167.707 25.04 167.479 25.904 167.023 26.696C166.567 27.488 165.883 28.124 164.971 28.604C164.059 29.084 162.907 29.324 161.515 29.324ZM172.202 7.076H176.234V13.772H180.194V16.94H176.234V29H172.202V16.94H169.574V13.772H172.202V7.076Z" fill="black"/>
<path d="M69.5417 63.936L50.6417 45.612L50.7497 63H46.5017V35.892H46.7177L65.5457 54.468L65.4737 36.792H69.6497V63.936H69.5417ZM81.8807 63.396C80.0807 63.396 78.5447 63.048 77.2727 62.352C76.0007 61.656 75.0287 60.696 74.3567 59.472C73.6847 58.224 73.3487 56.82 73.3487 55.26C73.3487 53.748 73.7327 52.38 74.5007 51.156C75.2687 49.908 76.3007 48.924 77.5967 48.204C78.8927 47.46 80.3447 47.088 81.9527 47.088C84.0407 47.088 85.7567 47.7 87.1007 48.924C88.4687 50.124 89.3807 51.828 89.8367 54.036L78.1367 57.996C79.0007 59.292 80.2727 59.94 81.9527 59.94C82.5767 59.94 83.1647 59.832 83.7167 59.616C84.2927 59.4 84.8447 59.112 85.3727 58.752L87.2087 61.74C86.3927 62.244 85.5167 62.652 84.5807 62.964C83.6447 63.252 82.7447 63.396 81.8807 63.396ZM77.3087 55.044C77.3087 55.236 77.3207 55.44 77.3447 55.656L85.3367 52.812C85.0487 52.14 84.6167 51.552 84.0407 51.048C83.4647 50.52 82.6607 50.256 81.6287 50.256C80.3567 50.256 79.3127 50.7 78.4967 51.588C77.7047 52.476 77.3087 53.628 77.3087 55.044ZM97.26 63.648C95.868 63.648 94.716 63.228 93.804 62.388C92.892 61.524 92.412 60.42 92.364 59.076V47.772H96.396V57.636C96.444 58.404 96.66 59.028 97.044 59.508C97.428 59.964 98.04 60.192 98.88 60.192C100.08 60.192 101.064 59.652 101.832 58.572C102.6 57.492 102.984 56.136 102.984 54.504V47.772H107.016V63H103.38L103.092 60.3C102.612 61.284 101.856 62.088 100.824 62.712C99.792 63.336 98.604 63.648 97.26 63.648ZM121.399 47.772L124.999 56.124L128.275 47.772H132.235L125.287 63.9L120.391 53.604L115.927 63.9L108.907 47.772H112.867L116.395 55.872L118.951 50.04L117.907 47.772H121.399ZM134.097 47.772H138.129V63H134.097V47.772ZM133.917 42.336C133.917 41.712 134.157 41.196 134.637 40.788C135.141 40.38 135.681 40.176 136.257 40.176C136.809 40.176 137.325 40.38 137.805 40.788C138.285 41.196 138.525 41.712 138.525 42.336C138.525 42.96 138.285 43.476 137.805 43.884C137.325 44.268 136.809 44.46 136.257 44.46C135.681 44.46 135.141 44.268 134.637 43.884C134.157 43.476 133.917 42.96 133.917 42.336ZM149.492 63.396C147.692 63.396 146.156 63.048 144.884 62.352C143.612 61.656 142.64 60.696 141.968 59.472C141.296 58.224 140.96 56.82 140.96 55.26C140.96 53.748 141.344 52.38 142.112 51.156C142.88 49.908 143.912 48.924 145.208 48.204C146.504 47.46 147.956 47.088 149.564 47.088C151.652 47.088 153.368 47.7 154.712 48.924C156.08 50.124 156.992 51.828 157.448 54.036L145.748 57.996C146.612 59.292 147.884 59.94 149.564 59.94C150.188 59.94 150.776 59.832 151.328 59.616C151.904 59.4 152.456 59.112 152.984 58.752L154.82 61.74C154.004 62.244 153.128 62.652 152.192 62.964C151.256 63.252 150.356 63.396 149.492 63.396ZM144.92 55.044C144.92 55.236 144.932 55.44 144.956 55.656L152.948 52.812C152.66 52.14 152.228 51.552 151.652 51.048C151.076 50.52 150.272 50.256 149.24 50.256C147.968 50.256 146.924 50.7 146.108 51.588C145.316 52.476 144.92 53.628 144.92 55.044ZM166.203 63.396C164.763 63.396 163.479 63.06 162.351 62.388C161.223 61.716 160.335 60.768 159.687 59.544C159.039 58.296 158.715 56.832 158.715 55.152C158.715 53.448 159.063 51.996 159.759 50.796C160.455 49.596 161.403 48.684 162.603 48.06C163.803 47.412 165.171 47.088 166.707 47.088C167.811 47.088 168.855 47.304 169.839 47.736C170.847 48.144 171.639 48.708 172.215 49.428V34.92H176.211V63H172.179V60.948C171.435 61.668 170.559 62.256 169.551 62.712C168.567 63.168 167.451 63.396 166.203 63.396ZM167.499 59.976C168.675 59.976 169.659 59.688 170.451 59.112C171.267 58.536 171.843 57.732 172.179 56.7V53.46C171.891 52.524 171.315 51.756 170.451 51.156C169.611 50.556 168.627 50.256 167.499 50.256C166.635 50.256 165.843 50.472 165.123 50.904C164.427 51.312 163.863 51.876 163.431 52.596C162.999 53.316 162.783 54.144 162.783 55.08C162.783 55.992 162.999 56.82 163.431 57.564C163.863 58.308 164.427 58.896 165.123 59.328C165.843 59.76 166.635 59.976 167.499 59.976Z" fill="black"/>
<path d="M3.59961 35H19.5996C27.8839 35 34.5996 41.7157 34.5996 50V51C34.5996 59.2843 27.8839 66 19.5996 66H18.5996C10.3153 66 3.59961 59.2843 3.59961 51V35Z" fill="#388E3C"/>
</svg>
